<svg xmlns="http://www.w3.org/2000/svg" viewBox="0 0 512 512">
  <rect width="512" height="512" rx="128" fill="#84cc16"/>
  <path fill="white" d="M256 64C150 64 64 150 64 256s86 192 192 192 192-86 192-192S362 64 256 64zm0 346C171 410 102 341 102 256S171 102 256 102s154 69 154 154-69 154-154 154z"/>
  <path fill="white" d="M346.5 210.5c-4.2-4.2-10.9-4.2-15.1 0L246 295.9l-55.4-55.4c-4.2-4.2-10.9-4.2-15.1 0s-4.2 10.9 0 15.1l62.9 62.9c4.2 4.2 10.9 4.2 15.1 0l92.9-92.9c4.2-4.2 4.2-10.9 0-15.1z"/>
</svg>